<mxfile host="app.diagrams.net" modified="2024-05-30T04:06:45.257Z" agent="Mozilla/5.0 (Windows NT 10.0; Win64; x64) AppleWebKit/537.36 (KHTML, like Gecko) Chrome/125.0.0.0 Safari/537.36" etag="NLIYkAAf1PMP-BlYu_uo" version="24.4.10" type="github">
  <diagram name="Page-1" id="oQyI5t3MdTqM5o-fADTn">
    <mxGraphModel dx="1694" dy="669" grid="1" gridSize="10" guides="1" tooltips="1" connect="1" arrows="1" fold="1" page="1" pageScale="1" pageWidth="850" pageHeight="1100" math="0" shadow="0">
      <root>
        <mxCell id="0" />
        <mxCell id="1" parent="0" />
        <mxCell id="qJT7mCyAYyMjX8clzDPy-29" style="edgeStyle=orthogonalEdgeStyle;rounded=0;orthogonalLoop=1;jettySize=auto;html=1;" edge="1" parent="1" source="qJT7mCyAYyMjX8clzDPy-1" target="qJT7mCyAYyMjX8clzDPy-12">
          <mxGeometry relative="1" as="geometry" />
        </mxCell>
        <mxCell id="qJT7mCyAYyMjX8clzDPy-1" value="User" style="swimlane;fontStyle=1;align=center;verticalAlign=top;childLayout=stackLayout;horizontal=1;startSize=26;horizontalStack=0;resizeParent=1;resizeParentMax=0;resizeLast=0;collapsible=1;marginBottom=0;whiteSpace=wrap;html=1;" vertex="1" parent="1">
          <mxGeometry x="260" y="750" width="160" height="190" as="geometry" />
        </mxCell>
        <mxCell id="qJT7mCyAYyMjX8clzDPy-2" value="-id: Integer&lt;div&gt;-email:String&lt;/div&gt;&lt;div&gt;-pasword:String&lt;/div&gt;&lt;div&gt;-birthDate: String&lt;/div&gt;&lt;div&gt;-name: String&lt;/div&gt;&lt;div&gt;-lastname: String&lt;/div&gt;&lt;div&gt;-phoneNum: int&lt;/div&gt;" style="text;strokeColor=none;fillColor=none;align=left;verticalAlign=top;spacingLeft=4;spacingRight=4;overflow=hidden;rotatable=0;points=[[0,0.5],[1,0.5]];portConstraint=eastwest;whiteSpace=wrap;html=1;" vertex="1" parent="qJT7mCyAYyMjX8clzDPy-1">
          <mxGeometry y="26" width="160" height="114" as="geometry" />
        </mxCell>
        <mxCell id="qJT7mCyAYyMjX8clzDPy-3" value="" style="line;strokeWidth=1;fillColor=none;align=left;verticalAlign=middle;spacingTop=-1;spacingLeft=3;spacingRight=3;rotatable=0;labelPosition=right;points=[];portConstraint=eastwest;strokeColor=inherit;" vertex="1" parent="qJT7mCyAYyMjX8clzDPy-1">
          <mxGeometry y="140" width="160" height="8" as="geometry" />
        </mxCell>
        <mxCell id="qJT7mCyAYyMjX8clzDPy-4" value="+setters and getters&lt;div&gt;+toString: String&lt;/div&gt;" style="text;strokeColor=none;fillColor=none;align=left;verticalAlign=top;spacingLeft=4;spacingRight=4;overflow=hidden;rotatable=0;points=[[0,0.5],[1,0.5]];portConstraint=eastwest;whiteSpace=wrap;html=1;" vertex="1" parent="qJT7mCyAYyMjX8clzDPy-1">
          <mxGeometry y="148" width="160" height="42" as="geometry" />
        </mxCell>
        <mxCell id="qJT7mCyAYyMjX8clzDPy-31" style="edgeStyle=orthogonalEdgeStyle;rounded=0;orthogonalLoop=1;jettySize=auto;html=1;" edge="1" parent="1" source="qJT7mCyAYyMjX8clzDPy-5" target="qJT7mCyAYyMjX8clzDPy-16">
          <mxGeometry relative="1" as="geometry">
            <Array as="points">
              <mxPoint x="660" y="840" />
              <mxPoint x="660" y="840" />
            </Array>
          </mxGeometry>
        </mxCell>
        <mxCell id="qJT7mCyAYyMjX8clzDPy-5" value="Form" style="swimlane;fontStyle=1;align=center;verticalAlign=top;childLayout=stackLayout;horizontal=1;startSize=20;horizontalStack=0;resizeParent=1;resizeParentMax=0;resizeLast=0;collapsible=1;marginBottom=0;whiteSpace=wrap;html=1;" vertex="1" parent="1">
          <mxGeometry x="580" y="870" width="160" height="80" as="geometry" />
        </mxCell>
        <mxCell id="qJT7mCyAYyMjX8clzDPy-6" value="+ field: type" style="text;strokeColor=none;fillColor=none;align=left;verticalAlign=top;spacingLeft=4;spacingRight=4;overflow=hidden;rotatable=0;points=[[0,0.5],[1,0.5]];portConstraint=eastwest;whiteSpace=wrap;html=1;" vertex="1" parent="qJT7mCyAYyMjX8clzDPy-5">
          <mxGeometry y="20" width="160" height="26" as="geometry" />
        </mxCell>
        <mxCell id="qJT7mCyAYyMjX8clzDPy-7" value="" style="line;strokeWidth=1;fillColor=none;align=left;verticalAlign=middle;spacingTop=-1;spacingLeft=3;spacingRight=3;rotatable=0;labelPosition=right;points=[];portConstraint=eastwest;strokeColor=inherit;" vertex="1" parent="qJT7mCyAYyMjX8clzDPy-5">
          <mxGeometry y="46" width="160" height="8" as="geometry" />
        </mxCell>
        <mxCell id="qJT7mCyAYyMjX8clzDPy-8" value="+ method(type): type" style="text;strokeColor=none;fillColor=none;align=left;verticalAlign=top;spacingLeft=4;spacingRight=4;overflow=hidden;rotatable=0;points=[[0,0.5],[1,0.5]];portConstraint=eastwest;whiteSpace=wrap;html=1;" vertex="1" parent="qJT7mCyAYyMjX8clzDPy-5">
          <mxGeometry y="54" width="160" height="26" as="geometry" />
        </mxCell>
        <mxCell id="qJT7mCyAYyMjX8clzDPy-9" value="Client&amp;nbsp;" style="swimlane;fontStyle=1;align=center;verticalAlign=top;childLayout=stackLayout;horizontal=1;startSize=26;horizontalStack=0;resizeParent=1;resizeParentMax=0;resizeLast=0;collapsible=1;marginBottom=0;whiteSpace=wrap;html=1;" vertex="1" parent="1">
          <mxGeometry x="400" y="500" width="180" height="200" as="geometry" />
        </mxCell>
        <mxCell id="qJT7mCyAYyMjX8clzDPy-10" value="-connection: Socket&lt;div&gt;-input: ObjectInputStream&lt;/div&gt;&lt;div&gt;-output: ObjectOutpuStream&lt;/div&gt;&lt;div&gt;-user: User&lt;/div&gt;&lt;div&gt;-window: MainWindow&lt;/div&gt;&lt;div&gt;-port: final int&lt;/div&gt;&lt;div&gt;&lt;br&gt;&lt;/div&gt;&lt;div&gt;&lt;br&gt;&lt;/div&gt;" style="text;strokeColor=none;fillColor=none;align=left;verticalAlign=top;spacingLeft=4;spacingRight=4;overflow=hidden;rotatable=0;points=[[0,0.5],[1,0.5]];portConstraint=eastwest;whiteSpace=wrap;html=1;" vertex="1" parent="qJT7mCyAYyMjX8clzDPy-9">
          <mxGeometry y="26" width="180" height="94" as="geometry" />
        </mxCell>
        <mxCell id="qJT7mCyAYyMjX8clzDPy-11" value="" style="line;strokeWidth=1;fillColor=none;align=left;verticalAlign=middle;spacingTop=-1;spacingLeft=3;spacingRight=3;rotatable=0;labelPosition=right;points=[];portConstraint=eastwest;strokeColor=inherit;" vertex="1" parent="qJT7mCyAYyMjX8clzDPy-9">
          <mxGeometry y="120" width="180" height="8" as="geometry" />
        </mxCell>
        <mxCell id="qJT7mCyAYyMjX8clzDPy-12" value="+main: static void&lt;div&gt;- runClient; void&lt;/div&gt;&lt;div&gt;-getStreams: void&lt;/div&gt;&lt;div&gt;-processRequest: void&lt;/div&gt;" style="text;strokeColor=none;fillColor=none;align=left;verticalAlign=top;spacingLeft=4;spacingRight=4;overflow=hidden;rotatable=0;points=[[0,0.5],[1,0.5]];portConstraint=eastwest;whiteSpace=wrap;html=1;" vertex="1" parent="qJT7mCyAYyMjX8clzDPy-9">
          <mxGeometry y="128" width="180" height="72" as="geometry" />
        </mxCell>
        <mxCell id="qJT7mCyAYyMjX8clzDPy-13" value="MainWindow" style="swimlane;fontStyle=1;align=center;verticalAlign=top;childLayout=stackLayout;horizontal=1;startSize=26;horizontalStack=0;resizeParent=1;resizeParentMax=0;resizeLast=0;collapsible=1;marginBottom=0;whiteSpace=wrap;html=1;" vertex="1" parent="1">
          <mxGeometry x="580" y="750" width="160" height="86" as="geometry" />
        </mxCell>
        <mxCell id="qJT7mCyAYyMjX8clzDPy-14" value="-form: Form" style="text;strokeColor=none;fillColor=none;align=left;verticalAlign=top;spacingLeft=4;spacingRight=4;overflow=hidden;rotatable=0;points=[[0,0.5],[1,0.5]];portConstraint=eastwest;whiteSpace=wrap;html=1;" vertex="1" parent="qJT7mCyAYyMjX8clzDPy-13">
          <mxGeometry y="26" width="160" height="26" as="geometry" />
        </mxCell>
        <mxCell id="qJT7mCyAYyMjX8clzDPy-15" value="" style="line;strokeWidth=1;fillColor=none;align=left;verticalAlign=middle;spacingTop=-1;spacingLeft=3;spacingRight=3;rotatable=0;labelPosition=right;points=[];portConstraint=eastwest;strokeColor=inherit;" vertex="1" parent="qJT7mCyAYyMjX8clzDPy-13">
          <mxGeometry y="52" width="160" height="8" as="geometry" />
        </mxCell>
        <mxCell id="qJT7mCyAYyMjX8clzDPy-16" value="+ method(type): type" style="text;strokeColor=none;fillColor=none;align=left;verticalAlign=top;spacingLeft=4;spacingRight=4;overflow=hidden;rotatable=0;points=[[0,0.5],[1,0.5]];portConstraint=eastwest;whiteSpace=wrap;html=1;" vertex="1" parent="qJT7mCyAYyMjX8clzDPy-13">
          <mxGeometry y="60" width="160" height="26" as="geometry" />
        </mxCell>
        <mxCell id="qJT7mCyAYyMjX8clzDPy-17" value="Schedule" style="swimlane;fontStyle=1;align=center;verticalAlign=top;childLayout=stackLayout;horizontal=1;startSize=26;horizontalStack=0;resizeParent=1;resizeParentMax=0;resizeLast=0;collapsible=1;marginBottom=0;whiteSpace=wrap;html=1;" vertex="1" parent="1">
          <mxGeometry x="880" y="960" width="230" height="150" as="geometry" />
        </mxCell>
        <mxCell id="qJT7mCyAYyMjX8clzDPy-18" value="-date: GregorianCalendar&lt;div&gt;-list: PriorityQueue&lt;/div&gt;" style="text;strokeColor=none;fillColor=none;align=left;verticalAlign=top;spacingLeft=4;spacingRight=4;overflow=hidden;rotatable=0;points=[[0,0.5],[1,0.5]];portConstraint=eastwest;whiteSpace=wrap;html=1;" vertex="1" parent="qJT7mCyAYyMjX8clzDPy-17">
          <mxGeometry y="26" width="230" height="44" as="geometry" />
        </mxCell>
        <mxCell id="qJT7mCyAYyMjX8clzDPy-19" value="" style="line;strokeWidth=1;fillColor=none;align=left;verticalAlign=middle;spacingTop=-1;spacingLeft=3;spacingRight=3;rotatable=0;labelPosition=right;points=[];portConstraint=eastwest;strokeColor=inherit;" vertex="1" parent="qJT7mCyAYyMjX8clzDPy-17">
          <mxGeometry y="70" width="230" height="8" as="geometry" />
        </mxCell>
        <mxCell id="qJT7mCyAYyMjX8clzDPy-20" value="+addAppointment; void (debe validar que no sea de 12 a 1, y dentro de 8 a 6PM)&lt;div&gt;+removeAppointment: void&lt;br&gt;+getSchedule: String&lt;/div&gt;" style="text;strokeColor=none;fillColor=none;align=left;verticalAlign=top;spacingLeft=4;spacingRight=4;overflow=hidden;rotatable=0;points=[[0,0.5],[1,0.5]];portConstraint=eastwest;whiteSpace=wrap;html=1;" vertex="1" parent="qJT7mCyAYyMjX8clzDPy-17">
          <mxGeometry y="78" width="230" height="72" as="geometry" />
        </mxCell>
        <mxCell id="qJT7mCyAYyMjX8clzDPy-21" value="Doctor" style="swimlane;fontStyle=1;align=center;verticalAlign=top;childLayout=stackLayout;horizontal=1;startSize=26;horizontalStack=0;resizeParent=1;resizeParentMax=0;resizeLast=0;collapsible=1;marginBottom=0;whiteSpace=wrap;html=1;" vertex="1" parent="1">
          <mxGeometry x="880" y="760" width="160" height="160" as="geometry" />
        </mxCell>
        <mxCell id="qJT7mCyAYyMjX8clzDPy-22" value="-schedule: ArrayList&amp;lt;Schedule&amp;gt;&lt;div&gt;-id: int&lt;/div&gt;&lt;div&gt;-name: String&lt;/div&gt;&lt;div&gt;-speciality: String&lt;/div&gt;" style="text;strokeColor=none;fillColor=none;align=left;verticalAlign=top;spacingLeft=4;spacingRight=4;overflow=hidden;rotatable=0;points=[[0,0.5],[1,0.5]];portConstraint=eastwest;whiteSpace=wrap;html=1;" vertex="1" parent="qJT7mCyAYyMjX8clzDPy-21">
          <mxGeometry y="26" width="160" height="74" as="geometry" />
        </mxCell>
        <mxCell id="qJT7mCyAYyMjX8clzDPy-23" value="" style="line;strokeWidth=1;fillColor=none;align=left;verticalAlign=middle;spacingTop=-1;spacingLeft=3;spacingRight=3;rotatable=0;labelPosition=right;points=[];portConstraint=eastwest;strokeColor=inherit;" vertex="1" parent="qJT7mCyAYyMjX8clzDPy-21">
          <mxGeometry y="100" width="160" height="8" as="geometry" />
        </mxCell>
        <mxCell id="qJT7mCyAYyMjX8clzDPy-24" value="+ addAppointment: void&lt;div&gt;+removeAppointment: void&lt;/div&gt;&lt;div&gt;+toString: String&lt;/div&gt;&lt;div&gt;&lt;br&gt;&lt;/div&gt;" style="text;strokeColor=none;fillColor=none;align=left;verticalAlign=top;spacingLeft=4;spacingRight=4;overflow=hidden;rotatable=0;points=[[0,0.5],[1,0.5]];portConstraint=eastwest;whiteSpace=wrap;html=1;" vertex="1" parent="qJT7mCyAYyMjX8clzDPy-21">
          <mxGeometry y="108" width="160" height="52" as="geometry" />
        </mxCell>
        <mxCell id="qJT7mCyAYyMjX8clzDPy-25" value="Admin" style="swimlane;fontStyle=1;align=center;verticalAlign=top;childLayout=stackLayout;horizontal=1;startSize=26;horizontalStack=0;resizeParent=1;resizeParentMax=0;resizeLast=0;collapsible=1;marginBottom=0;whiteSpace=wrap;html=1;" vertex="1" parent="1">
          <mxGeometry x="840" y="440" width="180" height="208" as="geometry" />
        </mxCell>
        <mxCell id="qJT7mCyAYyMjX8clzDPy-26" value="-doctorList: ArrayList&amp;lt;Doctor&amp;gt;&lt;div&gt;-userList: ArrayList&amp;lt;User&amp;gt;&lt;/div&gt;&lt;div&gt;&lt;br&gt;&lt;/div&gt;" style="text;strokeColor=none;fillColor=none;align=left;verticalAlign=top;spacingLeft=4;spacingRight=4;overflow=hidden;rotatable=0;points=[[0,0.5],[1,0.5]];portConstraint=eastwest;whiteSpace=wrap;html=1;" vertex="1" parent="qJT7mCyAYyMjX8clzDPy-25">
          <mxGeometry y="26" width="180" height="44" as="geometry" />
        </mxCell>
        <mxCell id="qJT7mCyAYyMjX8clzDPy-27" value="" style="line;strokeWidth=1;fillColor=none;align=left;verticalAlign=middle;spacingTop=-1;spacingLeft=3;spacingRight=3;rotatable=0;labelPosition=right;points=[];portConstraint=eastwest;strokeColor=inherit;" vertex="1" parent="qJT7mCyAYyMjX8clzDPy-25">
          <mxGeometry y="70" width="180" height="8" as="geometry" />
        </mxCell>
        <mxCell id="qJT7mCyAYyMjX8clzDPy-28" value="+addClient: void&lt;div&gt;+showClients: void&lt;/div&gt;&lt;div&gt;+showDoctors: void&lt;/div&gt;&lt;div&gt;+addSchedule: void&lt;/div&gt;&lt;div&gt;+removeSchedule: void&lt;/div&gt;&lt;div&gt;-loadFiles; void&lt;/div&gt;&lt;div&gt;-writeFiles: void&lt;br&gt;&lt;div&gt;&lt;br&gt;&lt;/div&gt;&lt;/div&gt;" style="text;strokeColor=none;fillColor=none;align=left;verticalAlign=top;spacingLeft=4;spacingRight=4;overflow=hidden;rotatable=0;points=[[0,0.5],[1,0.5]];portConstraint=eastwest;whiteSpace=wrap;html=1;" vertex="1" parent="qJT7mCyAYyMjX8clzDPy-25">
          <mxGeometry y="78" width="180" height="130" as="geometry" />
        </mxCell>
        <mxCell id="qJT7mCyAYyMjX8clzDPy-30" style="edgeStyle=orthogonalEdgeStyle;rounded=0;orthogonalLoop=1;jettySize=auto;html=1;" edge="1" parent="1" source="qJT7mCyAYyMjX8clzDPy-13">
          <mxGeometry relative="1" as="geometry">
            <mxPoint x="580" y="630" as="targetPoint" />
            <Array as="points">
              <mxPoint x="660" y="630" />
            </Array>
          </mxGeometry>
        </mxCell>
        <mxCell id="qJT7mCyAYyMjX8clzDPy-32" style="edgeStyle=orthogonalEdgeStyle;rounded=0;orthogonalLoop=1;jettySize=auto;html=1;" edge="1" parent="1" source="qJT7mCyAYyMjX8clzDPy-17" target="qJT7mCyAYyMjX8clzDPy-24">
          <mxGeometry relative="1" as="geometry">
            <Array as="points">
              <mxPoint x="995" y="940" />
              <mxPoint x="960" y="940" />
            </Array>
          </mxGeometry>
        </mxCell>
        <mxCell id="qJT7mCyAYyMjX8clzDPy-34" style="edgeStyle=orthogonalEdgeStyle;rounded=0;orthogonalLoop=1;jettySize=auto;html=1;entryX=0.487;entryY=1.01;entryDx=0;entryDy=0;entryPerimeter=0;" edge="1" parent="1" source="qJT7mCyAYyMjX8clzDPy-21" target="qJT7mCyAYyMjX8clzDPy-28">
          <mxGeometry relative="1" as="geometry">
            <Array as="points">
              <mxPoint x="960" y="674" />
              <mxPoint x="928" y="674" />
            </Array>
          </mxGeometry>
        </mxCell>
      </root>
    </mxGraphModel>
  </diagram>
</mxfile>
